<?xml version="1.0" encoding="iso-8859-1"?>
<!-- Generator: Adobe Illustrator 19.0.0, SVG Export Plug-In . SVG Version: 6.00 Build 0)  -->
<svg version="1.1" id="Layer_1" xmlns="http://www.w3.org/2000/svg" xmlns:xlink="http://www.w3.org/1999/xlink" x="0px" y="0px"
	 viewBox="0 0 512 512" style="enable-background:new 0 0 512 512;" xml:space="preserve" fill="white">
<g>
	<g>
		<path d="M374.804,0H137.196C106.92,0,82.286,24.643,82.286,54.929v402.143c0,30.286,24.634,54.928,54.911,54.928h237.607
			c30.277,0,54.911-24.643,54.911-54.928V54.929C429.714,24.643,405.08,0,374.804,0z M137.196,493.714
			c-20.196,0-36.625-16.438-36.625-36.643V54.929c0-20.206,16.429-36.643,36.625-36.643h105.909
			c-23.173,26.77-59.739,85.297-32.35,167.464c11.705,35.116,22.473,59.098,31.12,78.366
			c18.013,40.125,26.232,58.438,14.304,118.089c-13.306,66.525-21.782,99.083-25.289,111.509H137.196z M411.429,457.072
			c0,20.205-16.429,36.643-36.625,36.643H249.87c4.212-15.547,12.249-47.976,24.238-107.92
			c13.08-65.393,3.513-86.705-15.549-129.161c-8.482-18.902-19.04-42.419-30.455-76.669
			c-31.056-93.159,27.56-150.542,40.352-161.679h106.349c20.196,0,36.625,16.438,36.625,36.643V457.072z"/>
	</g>
</g>
<g>
	<g>
		<path d="M201.143,265.143c-10.085,0-18.286,8.205-18.286,18.286s8.201,18.286,18.286,18.286c10.085,0,18.286-8.205,18.286-18.286
			S211.228,265.143,201.143,265.143z"/>
	</g>
</g>
<g>
	<g>
		<path d="M310.857,265.143c-10.085,0-18.286,8.205-18.286,18.286s8.201,18.286,18.286,18.286c10.085,0,18.286-8.205,18.286-18.286
			S320.942,265.143,310.857,265.143z"/>
	</g>
</g>
<g>
</g>
<g>
</g>
<g>
</g>
<g>
</g>
<g>
</g>
<g>
</g>
<g>
</g>
<g>
</g>
<g>
</g>
<g>
</g>
<g>
</g>
<g>
</g>
<g>
</g>
<g>
</g>
<g>
</g>
</svg>
