<svg xmlns="http://www.w3.org/2000/svg" viewBox="0 0 510.758 510.758" xml:space="preserve" fill="#ff0" style="background-color:#000">
  <path d="M251.142 243.379c-6.4-6.4-16-6.4-22.4 0-3.2 3.2-4.8 6.4-4.8 11.2s1.6 8 4.8 11.2c3.2 3.2 8 4.8 11.2 4.8s8-1.6 11.2-4.8c3.2-3.2 4.8-6.4 4.8-11.2s-1.6-8-4.8-11.2z"/>
  <path d="M379.142 275.379c-6.4-6.4-16-6.4-22.4 0-3.2 3.2-4.8 6.4-4.8 11.2s1.6 8 4.8 11.2c3.2 3.2 6.4 4.8 11.2 4.8s8-1.6 11.2-4.8c3.2-3.2 4.8-6.4 4.8-11.2s-1.6-8-4.8-11.2zm-16-96c-6.4-6.4-16-6.4-22.4 0-3.2 3.2-4.8 6.4-4.8 11.2s1.6 8 4.8 11.2c3.2 3.2 6.4 4.8 11.2 4.8s8-1.6 11.2-4.8c3.2-3.2 4.8-6.4 4.8-11.2s-1.6-8-4.8-11.2zm-96 176c-6.4-6.4-16-6.4-22.4 0-3.2 3.2-4.8 6.4-4.8 11.2s1.6 8 4.8 11.2c3.2 3.2 6.4 4.8 11.2 4.8 4.8 0 8-1.6 11.2-4.8 3.2-3.2 4.8-8 4.8-11.2 0-4.8-1.6-8-4.8-11.2zm-128-96c-6.4-6.4-16-6.4-22.4 0-3.2 3.2-4.8 6.4-4.8 11.2s1.6 8 4.8 11.2c3.2 3.2 6.4 4.8 11.2 4.8s8-1.6 11.2-4.8c3.2-3.2 4.8-6.4 4.8-11.2s-1.6-8-4.8-11.2zm96-112c-6.4-6.4-16-6.4-22.4 0-3.2 3.2-4.8 6.4-4.8 11.2s1.6 8 4.8 11.2c3.2 3.2 8 4.8 11.2 4.8 4.8 0 8-1.6 11.2-4.8 3.2-3.2 4.8-6.4 4.8-11.2s-1.6-8-4.8-11.2z"/>
  <path d="M487.942 118.579c8-11.2 12.8-24 12.8-38.4 0-38.4-30.4-68.8-68.8-68.8-14.4 0-27.2 3.2-38.4 11.2-30.4-14.4-65.6-22.4-102.4-22.4-73.6 0-147.2 32-203.2 88-86.4 86.4-112 209.6-64 304-8 11.2-12.8 25.6-12.8 38.4 0 38.4 30.4 68.8 68.8 68.8 14.4 0 27.2-4.8 38.4-11.2 30.4 14.4 65.6 22.4 100.8 22.4 73.6 0 147.2-32 203.2-88 86.4-86.4 112-209.6 65.6-304zm-84.8 283.2c-51.2 49.6-116.8 76.8-182.4 76.8-33.6 0-67.2-8-96-24-3.2-1.6-4.8-1.6-8-1.6s-8 1.6-11.2 4.8c-6.4 6.4-16 9.6-25.6 9.6-20.8 0-36.8-16-36.8-36.8 0-9.6 3.2-19.2 9.6-25.6 4.8-4.8 6.4-12.8 1.6-19.2-44.8-83.2-22.4-196.8 56-275.2 49.6-49.6 115.2-78.4 180.8-78.4 35.2 0 67.2 8 96 24 6.4 3.2 14.4 3.2 19.2-1.6 6.4-6.4 16-9.6 25.6-9.6 20.8 0 36.8 16 36.8 36.8 0 9.6-3.2 19.2-9.6 25.6-4.8 4.8-6.4 12.8-1.6 19.2 46.4 83.2 24 196.8-54.4 275.2z"/>
</svg>
